<?xml version="1.0" encoding="utf-8" standalone="no"?>
<!DOCTYPE svg PUBLIC "-//W3C//DTD SVG 1.1//EN"
  "http://www.w3.org/Graphics/SVG/1.1/DTD/svg11.dtd">
<svg xmlns:xlink="http://www.w3.org/1999/xlink" width="792.748125pt" height="408.95325pt" viewBox="0 0 792.748125 408.95325" xmlns="http://www.w3.org/2000/svg" version="1.1">
 <metadata>
  <rdf:RDF xmlns:dc="http://purl.org/dc/elements/1.1/" xmlns:cc="http://creativecommons.org/ns#" xmlns:rdf="http://www.w3.org/1999/02/22-rdf-syntax-ns#">
   <cc:Work>
    <dc:type rdf:resource="http://purl.org/dc/dcmitype/StillImage"/>
    <dc:date>2026-07-12T22:06:29.201291</dc:date>
    <dc:format>image/svg+xml</dc:format>
    <dc:creator>
     <cc:Agent>
      <dc:title>Matplotlib v3.10.8, https://matplotlib.org/</dc:title>
     </cc:Agent>
    </dc:creator>
   </cc:Work>
  </rdf:RDF>
 </metadata>
 <defs>
  <style type="text/css">*{stroke-linejoin: round; stroke-linecap: butt}</style>
 </defs>
 <g id="figure_1">
  <g id="patch_1">
   <path d="M 0 408.95325 
L 792.748125 408.95325 
L 792.748125 0 
L 0 0 
z
" style="fill: #ffffff"/>
  </g>
  <g id="axes_1">
   <g id="patch_2">
    <path d="M 26.637 99.516546 
L 192.363 99.516546 
Q 198.501 99.516546 198.501 95.125698 
L 198.501 53.412642 
Q 198.501 49.021794 192.363 49.021794 
L 26.637 49.021794 
Q 20.499 49.021794 20.499 53.412642 
L 20.499 95.125698 
Q 20.499 99.516546 26.637 99.516546 
z
" clip-path="url(#pb82c804818)" style="fill: #56b4e9; opacity: 0.9; stroke: #000000; stroke-width: 1.2; stroke-linejoin: miter"/>
   </g>
   <g id="patch_3">
    <path d="M 26.637 176.356386 
L 192.363 176.356386 
Q 198.501 176.356386 198.501 171.965538 
L 198.501 130.252482 
Q 198.501 125.861634 192.363 125.861634 
L 26.637 125.861634 
Q 20.499 125.861634 20.499 130.252482 
L 20.499 171.965538 
Q 20.499 176.356386 26.637 176.356386 
z
" clip-path="url(#pb82c804818)" style="fill: #56b4e9; opacity: 0.9; stroke: #000000; stroke-width: 1.2; stroke-linejoin: miter"/>
   </g>
   <g id="patch_4">
    <path d="M 26.637 253.196226 
L 192.363 253.196226 
Q 198.501 253.196226 198.501 248.805378 
L 198.501 207.092322 
Q 198.501 202.701474 192.363 202.701474 
L 26.637 202.701474 
Q 20.499 202.701474 20.499 207.092322 
L 20.499 248.805378 
Q 20.499 253.196226 26.637 253.196226 
z
" clip-path="url(#pb82c804818)" style="fill: #56b4e9; opacity: 0.9; stroke: #000000; stroke-width: 1.2; stroke-linejoin: miter"/>
   </g>
   <g id="patch_5">
    <path d="M 26.637 330.036066 
L 192.363 330.036066 
Q 198.501 330.036066 198.501 325.645218 
L 198.501 283.932162 
Q 198.501 279.541314 192.363 279.541314 
L 26.637 279.541314 
Q 20.499 279.541314 20.499 283.932162 
L 20.499 325.645218 
Q 20.499 330.036066 26.637 330.036066 
z
" clip-path="url(#pb82c804818)" style="fill: #e69f00; opacity: 0.9; stroke: #000000; stroke-width: 1.2; stroke-linejoin: miter"/>
   </g>
   <g id="patch_6">
    <path d="M 26.637 392.239746 
L 192.363 392.239746 
Q 198.501 392.239746 198.501 387.848898 
L 198.501 353.453922 
Q 198.501 349.063074 192.363 349.063074 
L 26.637 349.063074 
Q 20.499 349.063074 20.499 353.453922 
L 20.499 387.848898 
Q 20.499 392.239746 26.637 392.239746 
z
" clip-path="url(#pb82c804818)" style="fill: #dddddd; opacity: 0.9; stroke: #000000; stroke-width: 1.2; stroke-linejoin: miter"/>
   </g>
   <g id="patch_7">
    <path d="M 109.5 100.050394 
Q 109.5 112.687322 109.5 123.759003 
" clip-path="url(#pb82c804818)" style="fill: none; stroke: #999999; stroke-width: 1.4; stroke-linecap: round"/>
    <path d="M 112.1 118.559003 
L 109.5 123.759003 
L 106.9 118.559003 
z
" clip-path="url(#pb82c804818)" style="fill: #999999; stroke: #999999; stroke-width: 1.4; stroke-linecap: round"/>
   </g>
   <g id="patch_8">
    <path d="M 109.5 176.890234 
Q 109.5 189.527162 109.5 200.598843 
" clip-path="url(#pb82c804818)" style="fill: none; stroke: #999999; stroke-width: 1.4; stroke-linecap: round"/>
    <path d="M 112.1 195.398843 
L 109.5 200.598843 
L 106.9 195.398843 
z
" clip-path="url(#pb82c804818)" style="fill: #999999; stroke: #999999; stroke-width: 1.4; stroke-linecap: round"/>
   </g>
   <g id="patch_9">
    <path d="M 109.5 253.730074 
Q 109.5 266.367002 109.5 277.438683 
" clip-path="url(#pb82c804818)" style="fill: none; stroke: #999999; stroke-width: 1.4; stroke-linecap: round"/>
    <path d="M 112.1 272.238683 
L 109.5 277.438683 
L 106.9 272.238683 
z
" clip-path="url(#pb82c804818)" style="fill: #999999; stroke: #999999; stroke-width: 1.4; stroke-linecap: round"/>
   </g>
   <g id="patch_10">
    <path d="M 109.5 330.574381 
Q 109.5 339.54951 109.5 346.959392 
" clip-path="url(#pb82c804818)" style="fill: none; stroke: #999999; stroke-width: 1.4; stroke-linecap: round"/>
    <path d="M 112.1 341.759392 
L 109.5 346.959392 
L 106.9 341.759392 
z
" clip-path="url(#pb82c804818)" style="fill: #999999; stroke: #999999; stroke-width: 1.4; stroke-linecap: round"/>
   </g>
   <g id="patch_11">
    <path d="M 241.467 121.470786 
L 402.078 121.470786 
Q 408.216 121.470786 408.216 117.079938 
L 408.216 68.048802 
Q 408.216 63.657954 402.078 63.657954 
L 241.467 63.657954 
Q 235.329 63.657954 235.329 68.048802 
L 235.329 117.079938 
Q 235.329 121.470786 241.467 121.470786 
z
" clip-path="url(#pb82c804818)" style="fill: #d55e00; opacity: 0.9; stroke: #000000; stroke-width: 1.2; stroke-linejoin: miter"/>
   </g>
   <g id="patch_12">
    <path d="M 430.722 121.470786 
L 596.448 121.470786 
Q 602.586 121.470786 602.586 117.079938 
L 602.586 68.048802 
Q 602.586 63.657954 596.448 63.657954 
L 430.722 63.657954 
Q 424.584 63.657954 424.584 68.048802 
L 424.584 117.079938 
Q 424.584 121.470786 430.722 121.470786 
z
" clip-path="url(#pb82c804818)" style="fill: #dddddd; opacity: 0.9; stroke: #000000; stroke-width: 1.2; stroke-linejoin: miter"/>
   </g>
   <g id="patch_13">
    <path d="M 408.173042 92.56437 
Q 416.403421 92.56437 423.068553 92.56437 
" clip-path="url(#pb82c804818)" style="fill: none; stroke: #999999; stroke-width: 1.4; stroke-linecap: round"/>
    <path d="M 417.868553 89.96437 
L 423.068553 92.56437 
L 417.868553 95.16437 
z
" clip-path="url(#pb82c804818)" style="fill: #999999; stroke: #999999; stroke-width: 1.4; stroke-linecap: round"/>
   </g>
   <g id="patch_14">
    <path d="M 241.467 205.628706 
L 402.078 205.628706 
Q 408.216 205.628706 408.216 201.237858 
L 408.216 152.206722 
Q 408.216 147.815874 402.078 147.815874 
L 241.467 147.815874 
Q 235.329 147.815874 235.329 152.206722 
L 235.329 201.237858 
Q 235.329 205.628706 241.467 205.628706 
z
" clip-path="url(#pb82c804818)" style="fill: #009e73; opacity: 0.9; stroke: #000000; stroke-width: 1.2; stroke-linejoin: miter"/>
   </g>
   <g id="patch_15">
    <path d="M 430.722 205.628706 
L 596.448 205.628706 
Q 602.586 205.628706 602.586 201.237858 
L 602.586 152.206722 
Q 602.586 147.815874 596.448 147.815874 
L 430.722 147.815874 
Q 424.584 147.815874 424.584 152.206722 
L 424.584 201.237858 
Q 424.584 205.628706 430.722 205.628706 
z
" clip-path="url(#pb82c804818)" style="fill: #dddddd; opacity: 0.9; stroke: #000000; stroke-width: 1.2; stroke-linejoin: miter"/>
   </g>
   <g id="patch_16">
    <path d="M 408.173042 176.72229 
Q 416.403421 176.72229 423.068553 176.72229 
" clip-path="url(#pb82c804818)" style="fill: none; stroke: #999999; stroke-width: 1.4; stroke-linecap: round"/>
    <path d="M 417.868553 174.12229 
L 423.068553 176.72229 
L 417.868553 179.32229 
z
" clip-path="url(#pb82c804818)" style="fill: #999999; stroke: #999999; stroke-width: 1.4; stroke-linecap: round"/>
   </g>
   <g id="patch_17">
    <path d="M 241.467 289.786626 
L 402.078 289.786626 
Q 408.216 289.786626 408.216 285.395778 
L 408.216 240.023682 
Q 408.216 235.632834 402.078 235.632834 
L 241.467 235.632834 
Q 235.329 235.632834 235.329 240.023682 
L 235.329 285.395778 
Q 235.329 289.786626 241.467 289.786626 
z
" clip-path="url(#pb82c804818)" style="fill: #999999; opacity: 0.9; stroke: #000000; stroke-width: 1.2; stroke-linejoin: miter"/>
   </g>
   <g id="patch_18">
    <path d="M 430.722 289.786626 
L 596.448 289.786626 
Q 602.586 289.786626 602.586 285.395778 
L 602.586 240.023682 
Q 602.586 235.632834 596.448 235.632834 
L 430.722 235.632834 
Q 424.584 235.632834 424.584 240.023682 
L 424.584 285.395778 
Q 424.584 289.786626 430.722 289.786626 
z
" clip-path="url(#pb82c804818)" style="fill: #dddddd; opacity: 0.9; stroke: #000000; stroke-width: 1.2; stroke-linejoin: miter"/>
   </g>
   <g id="patch_19">
    <path d="M 408.173042 262.70973 
Q 416.403421 262.70973 423.068553 262.70973 
" clip-path="url(#pb82c804818)" style="fill: none; stroke: #999999; stroke-width: 1.4; stroke-linecap: round"/>
    <path d="M 417.868553 260.10973 
L 423.068553 262.70973 
L 417.868553 265.30973 
z
" clip-path="url(#pb82c804818)" style="fill: #999999; stroke: #999999; stroke-width: 1.4; stroke-linecap: round"/>
   </g>
   <g id="text_1">
    <text style="font-size: 9.2px; font-family: 'DejaVu Sans'" transform="translate(68.05975 71.656801)">924 perturbations</text>
    <text style="font-size: 9.2px; font-family: 'DejaVu Sans'" transform="translate(43.387938 81.958789)">screen-level reversal scoring</text>
   </g>
   <g id="text_2">
    <text style="font-size: 9.2px; font-family: 'DejaVu Sans'" transform="translate(42.906375 148.496641)">208 convergent + FDR&lt;0.10</text>
    <text style="font-size: 9.2px; font-family: 'DejaVu Sans'" transform="translate(64.197188 158.798629)">(716 not advanced)</text>
   </g>
   <g id="text_3">
    <text style="font-size: 9.2px; font-family: 'DejaVu Sans'" transform="translate(60.154938 225.336481)">21 biologically robust</text>
    <text style="font-size: 9.2px; font-family: 'DejaVu Sans'" transform="translate(43.333313 235.638469)">(187 broad / donor-unstable)</text>
   </g>
   <g id="text_4">
    <text style="font-size: 9.2px; font-family: 'DejaVu Sans'" transform="translate(75.707969 302.176321)">0 advanceable</text>
    <text style="font-size: 9.2px; font-family: 'DejaVu Sans'" transform="translate(34.829063 312.478309)">21 safety / modality constrained</text>
   </g>
   <g id="text_5">
    <text style="font-size: 9.2px; font-family: 'DejaVu Sans'" transform="translate(64.269063 367.911104)">single-state screen:</text>
    <text style="font-size: 9.2px; font-family: 'DejaVu Sans'" transform="translate(52.100625 378.213091)">NO_ROBUST_CANDIDATE</text>
   </g>
   <g id="text_6">
    <text style="font-weight: 700; font-size: 10.5px; font-family: 'DejaVu Sans'; text-anchor: start" x="314.1" y="52.31493" transform="rotate(-0 314.1 52.31493)">Candidate-specific deep validation (branches)</text>
   </g>
   <g id="text_7">
    <text style="font-size: 9.2px; font-family: 'DejaVu Sans'; fill: #ffffff" transform="translate(295.303094 84.801007)">PAK2 (lead)</text>
    <text style="font-size: 9.2px; font-family: 'DejaVu Sans'; fill: #ffffff" transform="translate(263.8355 95.102995)">technical validation PASS</text>
    <text style="font-size: 9.2px; font-family: 'DejaVu Sans'; fill: #ffffff" transform="translate(262.86375 105.404982)">therapeutic direction FAIL</text>
   </g>
   <g id="text_8">
    <text style="font-size: 9.2px; font-family: 'DejaVu Sans'" transform="translate(490.748156 84.801007)">REJECTED</text>
    <text style="font-size: 9.2px; font-family: 'DejaVu Sans'" transform="translate(457.572094 95.102995)">reproducible cellular hit,</text>
    <text style="font-size: 9.2px; font-family: 'DejaVu Sans'" transform="translate(444.241438 105.404982)">not therapeutically directional</text>
   </g>
   <g id="text_9">
    <text style="font-size: 9.2px; font-family: 'DejaVu Sans'; fill: #ffffff" transform="translate(262.341219 168.958927)">RICTOR (bounded rescue)</text>
    <text style="font-size: 9.2px; font-family: 'DejaVu Sans'; fill: #ffffff" transform="translate(272.035 179.260915)">7 strong criteria PASS</text>
    <text style="font-size: 9.2px; font-family: 'DejaVu Sans'; fill: #ffffff" transform="translate(261.161031 189.562902)">+ borderline matched-null</text>
   </g>
   <g id="text_10">
    <text style="font-size: 9.2px; font-family: 'DejaVu Sans'" transform="translate(449.586063 168.958927)">RETAINED mechanism node</text>
    <text style="font-size: 9.2px; font-family: 'DejaVu Sans'" transform="translate(472.126781 179.260915)">with modality gap</text>
    <text style="font-size: 9.2px; font-family: 'DejaVu Sans'" transform="translate(462.061406 189.562902)">(+0.161; 11/11 LODO)</text>
   </g>
   <g id="text_11">
    <text style="font-size: 9.2px; font-family: 'DejaVu Sans'; fill: #ffffff" transform="translate(276.668063 260.097361)">RIPK1 (comparator)</text>
    <text style="font-size: 9.2px; font-family: 'DejaVu Sans'; fill: #ffffff" transform="translate(260.587469 270.399349)">weak / incoherent reversal</text>
   </g>
   <g id="text_12">
    <text style="font-size: 9.2px; font-family: 'DejaVu Sans'" transform="translate(468.438875 254.946367)">COMPARATOR ONLY</text>
    <text style="font-size: 9.2px; font-family: 'DejaVu Sans'" transform="translate(451.462 265.248355)">not directionally supported</text>
    <text style="font-size: 9.2px; font-family: 'DejaVu Sans'" transform="translate(479.450844 275.550342)">in this analysis</text>
   </g>
   <g id="text_13">
    <text style="font-style: italic; font-size: 9px; font-family: 'DejaVu Sans'; text-anchor: start" x="314.1" y="339.54957" transform="rotate(-0 314.1 339.54957)">Ranking is not validation: a real perturbation effect is necessary but not sufficient for target nomination.</text>
   </g>
   <g id="text_14">
    <text style="font-size: 8px; font-family: 'DejaVu Sans'; text-anchor: start; fill: #999999" x="314.1" y="363.33333" transform="rotate(-0 314.1 363.33333)">Denominators and reasons: results/frozen/candidate_funnel.tsv + rejection_ledger.tsv</text>
   </g>
   <g id="text_15">
    <text style="font-weight: 700; font-size: 12px; font-family: 'DejaVu Sans'" transform="translate(7.2 16.318125)">Target attrition through evidence gates</text>
    <text style="font-weight: 700; font-size: 12px; font-family: 'DejaVu Sans'" transform="translate(7.2 29.84925)">From 924 perturbations to a small set of evidence-gated mechanism hypotheses</text>
   </g>
  </g>
 </g>
 <defs>
  <clipPath id="pb82c804818">
   <rect x="7.2" y="35.84925" width="613.8" height="365.904"/>
  </clipPath>
 </defs>
</svg>
