<svg xmlns="http://www.w3.org/2000/svg" xmlns:xlink="http://www.w3.org/1999/xlink" width="987.678" height="421.578" version="1.1" viewBox="0 0 740.758 316.183"><metadata><rdf:RDF xmlns:cc="http://creativecommons.org/ns#" xmlns:dc="http://purl.org/dc/elements/1.1/" xmlns:rdf="http://www.w3.org/1999/02/22-rdf-syntax-ns#"><cc:Work><dc:type rdf:resource="http://purl.org/dc/dcmitype/StillImage"/><dc:format>image/svg+xml</dc:format><dc:creator><cc:Agent><dc:title>Matplotlib v3.10.8, https://matplotlib.org/</dc:title></cc:Agent></dc:creator></cc:Work></rdf:RDF></metadata><defs><style type="text/css">*{stroke-linejoin:round;stroke-linecap:butt}</style></defs><g id="figure_1"><g id="patch_1"><path d="M 0 316.183489 L 740.758281 316.183489 L 740.758281 0 L 0 0 z" style="fill:#fff"/></g><g id="axes_1"><g id="patch_2"><path d="M 298.334141 259.876998 L 442.424141 259.876998 L 442.424141 31.056438 L 298.334141 31.056438 z" style="fill:#fff"/></g><g id="line2d_1"><path d="M 298.334141 100.083217 L 442.424141 100.083217" clip-path="url(#p1ea2c95054)" style="fill:none;stroke-dasharray:4.81,2.08;stroke-dashoffset:0;stroke:#da2828;stroke-width:1.3"/></g><g id="matplotlib.axis_1"><g id="xtick_1"><g id="line2d_2"><defs><path id="mecb01af352" d="M 0 0 L 0 3.5" style="stroke:#000;stroke-width:.8"/></defs><g><use x="318.399" y="259.877" xlink:href="#mecb01af352" style="stroke:#000;stroke-width:.8"/></g></g><g id="text_1"><text style="font-size:11px;font-family:'DejaVu Sans';text-anchor:middle" x="318.399" y="275.235" transform="rotate(-0 318.398621 275.235279)">RICTOR</text></g></g><g id="xtick_2"><g id="line2d_3"><g><use x="370.379" y="259.877" xlink:href="#mecb01af352" style="stroke:#000;stroke-width:.8"/></g></g><g id="text_2"><text style="font-size:11px;font-family:'DejaVu Sans';text-anchor:middle" x="370.379" y="275.235" transform="rotate(-0 370.379141 275.235279)">PAK2</text></g></g><g id="xtick_3"><g id="line2d_4"><g><use x="422.36" y="259.877" xlink:href="#mecb01af352" style="stroke:#000;stroke-width:.8"/></g></g><g id="text_3"><text style="font-size:11px;font-family:'DejaVu Sans';text-anchor:middle" x="422.36" y="275.235" transform="rotate(-0 422.35966 275.235279)">RIPK1</text></g></g></g><g id="matplotlib.axis_2"><g id="ytick_1"><g id="line2d_5"><defs><path id="m360fb536de" d="M 0 0 L -3.5 0" style="stroke:#000;stroke-width:.8"/></defs><g><use x="298.334" y="230.146" xlink:href="#m360fb536de" style="stroke:#000;stroke-width:.8"/></g></g><g id="text_4"><text style="font-size:11px;font-family:'DejaVu Sans';text-anchor:end" x="291.334" y="234.325" transform="rotate(-0 291.334141 234.325332)">0.00</text></g></g><g id="ytick_2"><g id="line2d_6"><g><use x="298.334" y="189.754" xlink:href="#m360fb536de" style="stroke:#000;stroke-width:.8"/></g></g><g id="text_5"><text style="font-size:11px;font-family:'DejaVu Sans';text-anchor:end" x="291.334" y="193.933" transform="rotate(-0 291.334141 193.933104)">0.05</text></g></g><g id="ytick_3"><g id="line2d_7"><g><use x="298.334" y="149.362" xlink:href="#m360fb536de" style="stroke:#000;stroke-width:.8"/></g></g><g id="text_6"><text style="font-size:11px;font-family:'DejaVu Sans';text-anchor:end" x="291.334" y="153.541" transform="rotate(-0 291.334141 153.540876)">0.10</text></g></g><g id="ytick_4"><g id="line2d_8"><g><use x="298.334" y="108.97" xlink:href="#m360fb536de" style="stroke:#000;stroke-width:.8"/></g></g><g id="text_7"><text style="font-size:11px;font-family:'DejaVu Sans';text-anchor:end" x="291.334" y="113.149" transform="rotate(-0 291.334141 113.148647)">0.15</text></g></g><g id="ytick_5"><g id="line2d_9"><g><use x="298.334" y="68.577" xlink:href="#m360fb536de" style="stroke:#000;stroke-width:.8"/></g></g><g id="text_8"><text style="font-size:11px;font-family:'DejaVu Sans';text-anchor:end" x="291.334" y="72.756" transform="rotate(-0 291.334141 72.756419)">0.20</text></g></g><g id="text_9"><text style="font-size:11px;font-family:'DejaVu Sans';text-anchor:middle" x="260.554" y="145.467" transform="rotate(-90 260.554297 145.466718)">reversal score (-centered Pearson)</text></g></g><g id="patch_3"><path d="M 304.883686 230.146191 L 331.913556 230.146191 L 331.913556 96.915317 L 304.883686 96.915317 z" clip-path="url(#p1ea2c95054)" style="fill:#1ba7ff;stroke:#000;stroke-width:.6;stroke-linejoin:miter"/></g><g id="patch_4"><path d="M 356.864206 230.146191 L 383.894076 230.146191 L 383.894076 228.950878 L 356.864206 228.950878 z" clip-path="url(#p1ea2c95054)" style="fill:#9aa0a6;stroke:#000;stroke-width:.6;stroke-linejoin:miter"/></g><g id="patch_5"><path d="M 408.844725 230.146191 L 435.874595 230.146191 L 435.874595 235.641661 L 408.844725 235.641661 z" clip-path="url(#p1ea2c95054)" style="fill:#c4c8cc;stroke:#000;stroke-width:.6;stroke-linejoin:miter"/></g><g id="line2d_10"><path d="M 298.334141 230.146191 L 442.424141 230.146191" clip-path="url(#p1ea2c95054)" style="fill:none;stroke:#000;stroke-width:.8;stroke-linecap:square"/></g><g id="patch_6"><path d="M 298.334141 259.876998 L 298.334141 31.056438" style="fill:none;stroke:#000;stroke-width:.8;stroke-linejoin:miter;stroke-linecap:square"/></g><g id="patch_7"><path d="M 298.334141 259.876998 L 442.424141 259.876998" style="fill:none;stroke:#000;stroke-width:.8;stroke-linejoin:miter;stroke-linecap:square"/></g><g id="text_10"><text style="font-size:7px;font-family:'DejaVu Sans';text-anchor:middle;fill:#444" x="370.379" y="307.528" transform="rotate(-0 370.379141 307.527707)">n=6 donor pairs; leave-one-pair-out 6/6 positive; paired bootstrap median +0.160, 95% CI [+0.113, +0.191], 100% of bootstrap draws positive. Observational concordance; not causal/therapeutic validation.</text></g><g id="text_11"><text style="font-weight:700;font-size:9.5px;font-family:'DejaVu Sans'" transform="translate(210.631445 14.418516)">External paired JIA compartment concordance (GSE160097)</text><text style="font-weight:700;font-size:9.5px;font-family:'DejaVu Sans'" transform="translate(152.109219 25.056438)">synovial-fluid - blood memory CD4; + = knockdown opposes the joint programme</text></g><g id="LineCollection_1"><path d="M 308.002517 139.054521 L 308.002517 75.487888" clip-path="url(#p1ea2c95054)" style="fill:none;stroke:#08306b;stroke-width:1.4"/></g><g id="line2d_11"><defs><path id="m787e5a0fa3" d="M 4 0 L -4 -0" style="stroke:#08306b"/></defs><g clip-path="url(#p1ea2c95054)"><use x="308.003" y="139.055" xlink:href="#m787e5a0fa3" style="fill:#08306b;stroke:#08306b"/></g></g><g id="line2d_12"><g clip-path="url(#p1ea2c95054)"><use x="308.003" y="75.488" xlink:href="#m787e5a0fa3" style="fill:#08306b;stroke:#08306b"/></g></g><g id="line2d_13"><defs><path id="m19a7de3039" d="M 0 2 C 0.530406 2 1.03916 1.789267 1.414214 1.414214 C 1.789267 1.03916 2 0.530406 2 0 C 2 -0.530406 1.789267 -1.03916 1.414214 -1.414214 C 1.03916 -1.789267 0.530406 -2 0 -2 C -0.530406 -2 -1.03916 -1.789267 -1.414214 -1.414214 C -1.789267 -1.03916 -2 -0.530406 -2 0 C -2 0.530406 -1.789267 1.03916 -1.414214 1.414214 C -1.03916 1.789267 -0.530406 2 0 2 z" style="stroke:#08306b"/></defs><g clip-path="url(#p1ea2c95054)"><use x="308.003" y="101.278" xlink:href="#m19a7de3039" style="fill:#08306b;stroke:#08306b"/></g></g><g id="PathCollection_1"><defs><path id="m59213700d3" d="M 0 2.54951 C 0.676138 2.54951 1.324674 2.280877 1.802776 1.802776 C 2.280877 1.324674 2.54951 0.676138 2.54951 0 C 2.54951 -0.676138 2.280877 -1.324674 1.802776 -1.802776 C 1.324674 -2.280877 0.676138 -2.54951 0 -2.54951 C -0.676138 -2.54951 -1.324674 -2.280877 -1.802776 -1.802776 C -2.280877 -1.324674 -2.54951 -0.676138 -2.54951 0 C -2.54951 0.676138 -2.280877 1.324674 -1.802776 1.802776 C -1.324674 2.280877 -0.676138 2.54951 0 2.54951 z" style="stroke:#000;stroke-width:.5"/></defs><g clip-path="url(#p1ea2c95054)"><use x="325.676" y="93.121" xlink:href="#m59213700d3" style="fill:#1ba7ff;stroke:#000;stroke-width:.5"/><use x="326.923" y="87.209" xlink:href="#m59213700d3" style="fill:#1ba7ff;stroke:#000;stroke-width:.5"/><use x="328.171" y="97.222" xlink:href="#m59213700d3" style="fill:#1ba7ff;stroke:#000;stroke-width:.5"/><use x="329.418" y="104.094" xlink:href="#m59213700d3" style="fill:#1ba7ff;stroke:#000;stroke-width:.5"/><use x="330.666" y="111.787" xlink:href="#m59213700d3" style="fill:#1ba7ff;stroke:#000;stroke-width:.5"/><use x="331.914" y="97.207" xlink:href="#m59213700d3" style="fill:#1ba7ff;stroke:#000;stroke-width:.5"/></g></g><g id="legend_1"><g id="patch_8"><path d="M 308.953438 163.104608 L 437.174141 163.104608 Q 438.674141 163.104608 438.674141 161.604608 L 438.674141 129.328827 Q 438.674141 127.828827 437.174141 127.828827 L 308.953438 127.828827 Q 307.453438 127.828827 307.453438 129.328827 L 307.453438 161.604608 Q 307.453438 163.104608 308.953438 163.104608 z" style="fill:#fff;opacity:.95;stroke:#ccc;stroke-linejoin:miter"/></g><g id="line2d_14"><path d="M 310.453438 133.902655 L 317.953438 133.902655 L 325.453438 133.902655" style="fill:none;stroke-dasharray:4.81,2.08;stroke-dashoffset:0;stroke:#da2828;stroke-width:1.3"/></g><g id="text_12"><text style="font-size:7.5px;font-family:'DejaVu Sans';text-anchor:start" x="331.453" y="136.528" transform="rotate(-0 331.453438 136.527655)">internal reversal (+0.161)</text></g><g id="PathCollection_2"><g><use x="317.953" y="145.567" xlink:href="#m59213700d3" style="fill:#1ba7ff;stroke:#000;stroke-width:.5"/></g></g><g id="text_13"><text style="font-size:7.5px;font-family:'DejaVu Sans';text-anchor:start" x="331.453" y="147.536" transform="rotate(-0 331.453438 147.536249)">6 leave-one-pair-out</text></g><g id="LineCollection_2"><path d="M 317.953438 159.669843 L 317.953438 152.169843" style="fill:none;stroke:#08306b;stroke-width:1.4"/></g><g id="line2d_15"><g><use x="317.953" y="159.67" xlink:href="#m787e5a0fa3" style="fill:#08306b;stroke:#08306b"/></g></g><g id="line2d_16"><g><use x="317.953" y="152.17" xlink:href="#m787e5a0fa3" style="fill:#08306b;stroke:#08306b"/></g></g><g id="line2d_18"><g><use x="317.953" y="155.92" xlink:href="#m19a7de3039" style="fill:#08306b;stroke:#08306b"/></g></g><g id="text_14"><text style="font-size:7.5px;font-family:'DejaVu Sans';text-anchor:start" x="331.453" y="158.545" transform="rotate(-0 331.453438 158.544843)">bootstrap median + 95% CI</text></g></g><g id="text_15"><text style="font-size:9px;font-family:'DejaVu Sans';text-anchor:middle" x="318.399" y="60.691" transform="rotate(-0 318.398621 60.690657)">+0.165</text></g><g id="text_16"><text style="font-size:9px;font-family:'DejaVu Sans';text-anchor:middle" x="370.379" y="219.001" transform="rotate(-0 370.379141 219.000714)">+0.001</text></g><g id="text_17"><text style="font-size:9px;font-family:'DejaVu Sans';text-anchor:middle" x="422.36" y="253.79" transform="rotate(-0 422.35966 253.790078)">-0.007</text></g></g></g><defs><clipPath id="p1ea2c95054"><rect width="144.09" height="228.821" x="298.334" y="31.056"/></clipPath></defs></svg>